<?xml version="1.0" encoding="UTF-8"?>
<svg xmlns="http://www.w3.org/2000/svg" xmlns:xlink="http://www.w3.org/1999/xlink" viewBox="0 0 1923.33 1080">
  <defs>
    <style>
      .cls-1 {
        fill: url(#_Безымянный_градиент_296-14);
      }

      .cls-2 {
        fill: url(#_Безымянный_градиент_296-15);
      }

      .cls-3 {
        fill: url(#_Безымянный_градиент_296-2);
      }

      .cls-4 {
        fill: url(#_Безымянный_градиент_457);
      }

      .cls-5 {
        fill: url(#_Безымянный_градиент_296-3);
      }

      .cls-6 {
        fill: url(#_Безымянный_градиент_296-6);
      }

      .cls-7 {
        fill: url(#_Безымянный_градиент_296-13);
      }

      .cls-8 {
        fill: url(#_Безымянный_градиент_296-5);
      }

      .cls-9 {
        fill: url(#_Безымянный_градиент_296-18);
      }

      .cls-10 {
        fill: url(#_Безымянный_градиент_296-8);
      }

      .cls-11 {
        fill: url(#_Безымянный_градиент_296-10);
      }

      .cls-12 {
        fill: url(#_Безымянный_градиент_296-7);
      }

      .cls-13 {
        fill: url(#_Безымянный_градиент_296);
      }

      .cls-14 {
        fill: url(#_Безымянный_градиент_296-4);
      }

      .cls-15 {
        fill: url(#_Безымянный_градиент_296-11);
      }

      .cls-16 {
        fill: url(#_Безымянный_градиент_296-9);
      }

      .cls-17 {
        fill: url(#_Безымянный_градиент_296-19);
      }

      .cls-18 {
        fill: url(#_Безымянный_градиент_296-16);
      }

      .cls-19 {
        fill: url(#_Безымянный_градиент_296-12);
      }

      .cls-20 {
        fill: url(#_Безымянный_градиент_296-17);
      }
    </style>
    <linearGradient id="_Безымянный_градиент_457" data-name="Безымянный градиент 457" x1="0" y1="540" x2="1920" y2="540" gradientUnits="userSpaceOnUse">
      <stop offset="0" stop-color="#4149b6"/>
      <stop offset=".16" stop-color="#4348b6" stop-opacity=".98"/>
      <stop offset=".31" stop-color="#4947b7" stop-opacity=".92"/>
      <stop offset=".45" stop-color="#5345ba" stop-opacity=".81"/>
      <stop offset=".59" stop-color="#6242bd" stop-opacity=".67"/>
      <stop offset=".73" stop-color="#743fc1" stop-opacity=".48"/>
      <stop offset=".87" stop-color="#8b3ac7" stop-opacity=".26"/>
      <stop offset="1" stop-color="#a536cd" stop-opacity="0"/>
    </linearGradient>
    <linearGradient id="_Безымянный_градиент_296" data-name="Безымянный градиент 296" x1="1060.5" y1="540" x2="1120.5" y2="540" gradientUnits="userSpaceOnUse">
      <stop offset="0" stop-color="#c3a2f4"/>
      <stop offset=".07" stop-color="#b99ff2"/>
      <stop offset=".19" stop-color="#a097ed"/>
      <stop offset=".35" stop-color="#768be6"/>
      <stop offset=".53" stop-color="#3d7bdc"/>
      <stop offset=".62" stop-color="#1e72d7"/>
      <stop offset=".81" stop-color="#0046a3"/>
      <stop offset=".99" stop-color="#2f1d81"/>
    </linearGradient>
    <linearGradient id="_Безымянный_градиент_296-2" data-name="Безымянный градиент 296" x1="1265" y1="367.33" x2="1646.33" y2="367.33" gradientTransform="translate(686.1 -921.72) rotate(45)" xlink:href="#_Безымянный_градиент_296"/>
    <linearGradient id="_Безымянный_градиент_296-3" data-name="Безымянный градиент 296" x1="1488.33" y1="89.04" x2="1754.33" y2="89.04" xlink:href="#_Безымянный_градиент_296"/>
    <linearGradient id="_Безымянный_градиент_296-4" data-name="Безымянный градиент 296" x1="1341" y1="745.67" x2="1641" y2="745.67" xlink:href="#_Безымянный_градиент_296"/>
    <linearGradient id="_Безымянный_градиент_296-5" data-name="Безымянный градиент 296" x1="1165" y1="754.67" x2="1265" y2="754.67" xlink:href="#_Безымянный_градиент_296"/>
    <linearGradient id="_Безымянный_градиент_296-6" data-name="Безымянный градиент 296" x1="1221" y1="635.67" x2="1315" y2="635.67" xlink:href="#_Безымянный_градиент_296"/>
    <linearGradient id="_Безымянный_градиент_296-7" data-name="Безымянный градиент 296" x1="1235.67" y1="524.67" x2="1286.33" y2="524.67" gradientTransform="translate(1658.86 -781.9) rotate(84.35)" xlink:href="#_Безымянный_градиент_296"/>
    <linearGradient id="_Безымянный_градиент_296-8" data-name="Безымянный градиент 296" x1="1057" y1="682.67" x2="1141" y2="682.67" xlink:href="#_Безымянный_градиент_296"/>
    <linearGradient id="_Безымянный_градиент_296-9" data-name="Безымянный градиент 296" x1="965.33" y1="722" x2="1009.33" y2="722" xlink:href="#_Безымянный_градиент_296"/>
    <linearGradient id="_Безымянный_градиент_296-10" data-name="Безымянный градиент 296" x1="973.5" y1="850.83" x2="1119.17" y2="850.83" xlink:href="#_Безымянный_градиент_296"/>
    <linearGradient id="_Безымянный_градиент_296-11" data-name="Безымянный градиент 296" x1="1080.67" y1="1000.76" x2="1141.33" y2="1000.76" xlink:href="#_Безымянный_градиент_296"/>
    <linearGradient id="_Безымянный_градиент_296-12" data-name="Безымянный градиент 296" x1="1099.67" y1="379" x2="1230.33" y2="379" gradientTransform="translate(1427.36 -817.68) rotate(84.35)" xlink:href="#_Безымянный_градиент_296"/>
    <linearGradient id="_Безымянный_градиент_296-13" data-name="Безымянный градиент 296" x1="960" y1="402.33" x2="1039.33" y2="402.33" gradientTransform="translate(77.35 -154.93) rotate(9.22)" xlink:href="#_Безымянный_градиент_296"/>
    <linearGradient id="_Безымянный_градиент_296-14" data-name="Безымянный градиент 296" x1="999.67" y1="237.33" x2="1093" y2="237.33" gradientTransform="translate(336.28 -567) rotate(35.78)" xlink:href="#_Безымянный_градиент_296"/>
    <linearGradient id="_Безымянный_градиент_296-15" data-name="Безымянный градиент 296" x1="1175.33" y1="226" x2="1254.67" y2="226" xlink:href="#_Безымянный_градиент_296"/>
    <linearGradient id="_Безымянный_градиент_296-16" data-name="Безымянный градиент 296" x1="1072.3" y1="108.08" x2="1125.7" y2="108.08" xlink:href="#_Безымянный_градиент_296"/>
    <linearGradient id="_Безымянный_градиент_296-17" data-name="Безымянный градиент 296" x1="1243.74" y1="86.06" x2="1474.41" y2="86.06" xlink:href="#_Безымянный_градиент_296"/>
    <linearGradient id="_Безымянный_градиент_296-18" data-name="Безымянный градиент 296" x1="1498.41" x2="1923.33" xlink:href="#_Безымянный_градиент_296"/>
    <linearGradient id="_Безымянный_градиент_296-19" data-name="Безымянный градиент 296" x1="1171.67" y1="943.35" x2="1474.41" y2="943.35" xlink:href="#_Безымянный_градиент_296"/>
  </defs>
  <g id="_Слой_1" data-name="Слой 1">
    <rect class="cls-4" width="1920" height="1080"/>
  </g>
  <g id="_Слой_2" data-name="Слой 2">
    <g>
      <circle class="cls-13" cx="1090.5" cy="540" r="30"/>
      <circle class="cls-3" cx="1455.67" cy="367.33" r="190.67" transform="translate(166.61 1136.9) rotate(-45)"/>
      <path class="cls-5" d="M1548.33,178.08c31.55,0,57.4-24.36,59.8-55.3,15.51,13.69,35.88,22,58.2,22,48.6,0,88-39.4,88-88,0-21.64-7.82-41.45-20.77-56.78h-134.45c-12.96,15.33-20.77,35.14-20.77,56.78,0,3.26,.18,6.48,.53,9.65-8.95-5.3-19.38-8.35-30.53-8.35-33.14,0-60,26.86-60,60s26.86,60,60,60Z"/>
      <path class="cls-14" d="M1641,824.67c0-51.18-41.49-92.67-92.67-92.67-11.43,0-22.37,2.07-32.48,5.86,14.85-17.36,23.82-39.89,23.82-64.53,0-54.86-44.47-99.33-99.33-99.33s-99.33,44.47-99.33,99.33,44.47,99.33,99.33,99.33c12.87,0,25.17-2.45,36.46-6.91-13.2,16.01-21.13,36.53-21.13,58.91,0,51.18,41.49,92.67,92.67,92.67s92.67-41.49,92.67-92.67Z"/>
      <circle class="cls-8" cx="1215" cy="754.67" r="50"/>
      <circle class="cls-6" cx="1268" cy="635.67" r="47"/>
      <circle class="cls-12" cx="1261" cy="524.67" r="25.33" transform="translate(614.63 1727.83) rotate(-84.35)"/>
      <circle class="cls-10" cx="1099" cy="682.67" r="42"/>
      <circle class="cls-16" cx="987.33" cy="722" r="22"/>
      <circle class="cls-11" cx="1046.33" cy="850.83" r="72.83"/>
      <circle class="cls-15" cx="1111" cy="1000.76" r="30.33"/>
      <circle class="cls-19" cx="1165" cy="379" r="65.33" transform="translate(673.05 1500.98) rotate(-84.35)"/>
      <circle class="cls-7" cx="999.67" cy="402.33" r="39.67" transform="translate(-51.54 165.32) rotate(-9.22)"/>
      <circle class="cls-1" cx="1046.33" cy="237.33" r="46.67" transform="translate(58.73 656.6) rotate(-35.78)"/>
      <circle class="cls-2" cx="1215" cy="226" r="39.67"/>
      <circle class="cls-18" cx="1099" cy="108.08" r="26.7"/>
      <path class="cls-20" d="M1359.08,172.11c63.7,0,115.33-51.64,115.33-115.33,0-20.64-5.43-40.02-14.93-56.78h-200.81c-9.5,16.76-14.93,36.14-14.93,56.78,0,63.7,51.64,115.33,115.33,115.33Z"/>
      <path class="cls-9" d="M1923.33,217.16V0h-95.66c-40.2,19.01-68.01,59.92-68.01,107.33,0,19.19,4.56,37.3,12.64,53.34-10.47-3.46-21.66-5.34-33.3-5.34-58.54,0-106,47.46-106,106s47.46,106,106,106c14.17,0,27.68-2.79,40.04-7.83-12.32,21.1-19.38,45.64-19.38,71.83,0,22.11,5.03,43.04,14,61.71-23.97-16.23-52.88-25.71-84-25.71-82.84,0-150,67.16-150,150s67.16,150,150,150c14.47,0,28.45-2.05,41.69-5.88-58.77,33.84-98.34,97.28-98.34,169.97,0,4.31,.16,8.57,.43,12.81-13.43-8.13-29.18-12.81-46.03-12.81-49.16,0-89.01,39.85-89.01,89.01,0,22.91,8.66,43.8,22.88,59.57h132.26c8.12-9.01,14.41-19.68,18.33-31.45,8.6,11.52,18.44,22.08,29.32,31.45h222.14v-320.4c-27.99-15.4-60.13-24.17-94.33-24.17-21.13,0-41.47,3.36-60.53,9.54,42.73-26.43,71.2-73.71,71.2-127.65,0-23.98-5.64-46.64-15.64-66.74,22.48,14.79,49.39,23.4,78.31,23.4,7.14,0,14.15-.53,21-1.54V290.21c-6.85-1.01-13.86-1.54-21-1.54-24.15,0-46.89,6.01-66.83,16.6,6.1-13.39,9.51-28.26,9.51-43.93s-3.28-29.99-9.17-43.17c13.19,5.06,27.51,7.84,42.49,7.84,15.93,0,31.12-3.15,45-8.84Z"/>
      <path class="cls-17" d="M1323.04,806.69c-83.6,0-151.37,67.77-151.37,151.37,0,50.02,24.27,94.37,61.67,121.93h179.39c37.4-27.56,61.67-71.91,61.67-121.93,0-83.6-67.77-151.37-151.37-151.37Z"/>
    </g>
  </g>
</svg>